<svg width="270" height="160" viewBox="0 0 270 160" fill="none" xmlns="http://www.w3.org/2000/svg">
<path d="M47.4092 22L43.0938 10.627H43.0234C43.0469 10.8672 43.0674 11.1602 43.085 11.5059C43.1025 11.8516 43.1172 12.2295 43.1289 12.6396C43.1406 13.0439 43.1465 13.457 43.1465 13.8789V22H41.7578V9.15039H43.9727L48.042 19.8379H48.1035L52.2344 9.15039H54.4316V22H52.9551V13.7734C52.9551 13.3926 52.9609 13.0117 52.9727 12.6309C52.9844 12.2441 52.999 11.8809 53.0166 11.541C53.0342 11.1953 53.0518 10.8965 53.0693 10.6445H52.999L48.6309 22H47.4092ZM61.6911 12.209C62.8395 12.209 63.692 12.4668 64.2487 12.9824C64.8053 13.498 65.0836 14.3213 65.0836 15.4521V22H64.0202L63.7389 20.5762H63.6686C63.3991 20.9277 63.1178 21.2236 62.8248 21.4639C62.5319 21.6982 62.192 21.877 61.8053 22C61.4245 22.1172 60.9557 22.1758 60.3991 22.1758C59.8131 22.1758 59.2916 22.0732 58.8346 21.8682C58.3834 21.6631 58.026 21.3525 57.7623 20.9365C57.5045 20.5205 57.3756 19.9932 57.3756 19.3545C57.3756 18.3936 57.7565 17.6553 58.5182 17.1396C59.2799 16.624 60.4401 16.3428 61.9987 16.2959L63.6598 16.2256V15.6367C63.6598 14.8047 63.4811 14.2217 63.1237 13.8877C62.7663 13.5537 62.2623 13.3867 61.612 13.3867C61.108 13.3867 60.6276 13.46 60.1705 13.6064C59.7135 13.7529 59.2799 13.9258 58.8698 14.125L58.4215 13.0176C58.8551 12.7949 59.3532 12.6045 59.9157 12.4463C60.4782 12.2881 61.07 12.209 61.6911 12.209ZM63.6422 17.2539L62.1745 17.3154C60.9733 17.3623 60.1266 17.5586 59.6344 17.9043C59.1422 18.25 58.8961 18.7393 58.8961 19.3721C58.8961 19.9229 59.0631 20.3301 59.3971 20.5938C59.7311 20.8574 60.1735 20.9893 60.7243 20.9893C61.5797 20.9893 62.2799 20.752 62.8248 20.2773C63.3698 19.8027 63.6422 19.0908 63.6422 18.1416V17.2539ZM69.9085 12.3672V22H68.4495V12.3672H69.9085ZM69.1966 8.76367C69.4368 8.76367 69.6419 8.84277 69.8118 9.00098C69.9876 9.15332 70.0755 9.39355 70.0755 9.72168C70.0755 10.0439 69.9876 10.2842 69.8118 10.4424C69.6419 10.6006 69.4368 10.6797 69.1966 10.6797C68.9446 10.6797 68.7337 10.6006 68.5637 10.4424C68.3997 10.2842 68.3177 10.0439 68.3177 9.72168C68.3177 9.39355 68.3997 9.15332 68.5637 9.00098C68.7337 8.84277 68.9446 8.76367 69.1966 8.76367ZM77.9237 12.1914C79.0663 12.1914 79.9306 12.4727 80.5165 13.0352C81.1025 13.5918 81.3954 14.4883 81.3954 15.7246V22H79.954V15.8213C79.954 15.0186 79.7695 14.418 79.4003 14.0195C79.037 13.6211 78.4775 13.4219 77.7216 13.4219C76.6552 13.4219 75.9052 13.7236 75.4716 14.3271C75.038 14.9307 74.8212 15.8066 74.8212 16.9551V22H73.3622V12.3672H74.54L74.7597 13.7559H74.8388C75.0439 13.416 75.3046 13.1318 75.621 12.9033C75.9374 12.6689 76.2919 12.4932 76.6845 12.376C77.0771 12.2529 77.4902 12.1914 77.9237 12.1914ZM97.2678 18.5811C97.2678 19.3428 97.0773 19.9932 96.6965 20.5322C96.3215 21.0654 95.7941 21.4727 95.1145 21.7539C94.4348 22.0352 93.635 22.1758 92.715 22.1758C92.2287 22.1758 91.7687 22.1523 91.3352 22.1055C90.9016 22.0586 90.5031 21.9912 90.1398 21.9033C89.7766 21.8154 89.4572 21.707 89.1818 21.5781V20.1455C89.6213 20.3271 90.1574 20.4971 90.7902 20.6553C91.423 20.8076 92.0852 20.8838 92.7766 20.8838C93.4211 20.8838 93.966 20.7988 94.4113 20.6289C94.8566 20.4531 95.1936 20.2041 95.4221 19.8818C95.6564 19.5537 95.7736 19.1611 95.7736 18.7041C95.7736 18.2646 95.677 17.8984 95.4836 17.6055C95.2902 17.3066 94.968 17.0371 94.5168 16.7969C94.0715 16.5508 93.4621 16.29 92.6887 16.0146C92.1437 15.8213 91.6633 15.6104 91.2473 15.3818C90.8312 15.1475 90.4826 14.8838 90.2014 14.5908C89.9201 14.2979 89.7062 13.958 89.5598 13.5713C89.4191 13.1846 89.3488 12.7422 89.3488 12.2441C89.3488 11.5586 89.5217 10.9727 89.8674 10.4863C90.2189 9.99414 90.7023 9.61914 91.3176 9.36133C91.9387 9.09766 92.6506 8.96582 93.4533 8.96582C94.1389 8.96582 94.7717 9.03027 95.3518 9.15918C95.9377 9.28809 96.4738 9.46094 96.9602 9.67773L96.4943 10.9609C96.0314 10.7676 95.5393 10.6064 95.0178 10.4775C94.5021 10.3486 93.9689 10.2842 93.4182 10.2842C92.8674 10.2842 92.4016 10.3662 92.0207 10.5303C91.6457 10.6885 91.3586 10.9141 91.1594 11.207C90.9602 11.5 90.8605 11.8486 90.8605 12.2529C90.8605 12.7041 90.9543 13.0791 91.1418 13.3779C91.3352 13.6768 91.6398 13.9434 92.0559 14.1777C92.4777 14.4062 93.0344 14.6465 93.7258 14.8984C94.4816 15.1738 95.1232 15.4668 95.6506 15.7773C96.1779 16.082 96.5793 16.457 96.8547 16.9023C97.1301 17.3418 97.2678 17.9014 97.2678 18.5811ZM103.147 20.9805C103.388 20.9805 103.634 20.96 103.886 20.9189C104.138 20.8779 104.343 20.8281 104.501 20.7695V21.9033C104.331 21.9795 104.094 22.0439 103.789 22.0967C103.49 22.1494 103.197 22.1758 102.91 22.1758C102.4 22.1758 101.937 22.0879 101.521 21.9121C101.105 21.7305 100.771 21.4258 100.519 20.998C100.273 20.5703 100.15 19.9785 100.15 19.2227V13.5098H98.7791V12.7979L100.159 12.2266L100.739 10.1348H101.618V12.3672H104.439V13.5098H101.618V19.1787C101.618 19.7822 101.756 20.2334 102.031 20.5322C102.312 20.8311 102.684 20.9805 103.147 20.9805ZM111.189 12.1914C111.382 12.1914 111.584 12.2031 111.795 12.2266C112.006 12.2441 112.194 12.2705 112.358 12.3057L112.173 13.6592C112.015 13.6182 111.839 13.5859 111.646 13.5625C111.453 13.5391 111.271 13.5273 111.101 13.5273C110.714 13.5273 110.348 13.6064 110.002 13.7646C109.663 13.917 109.364 14.1396 109.106 14.4326C108.848 14.7197 108.646 15.0684 108.499 15.4785C108.353 15.8828 108.28 16.334 108.28 16.832V22H106.812V12.3672H108.025L108.183 14.1426H108.245C108.444 13.7852 108.684 13.46 108.965 13.167C109.247 12.8682 109.572 12.6309 109.941 12.4551C110.316 12.2793 110.732 12.1914 111.189 12.1914ZM118.246 12.1914C119.067 12.1914 119.77 12.373 120.356 12.7363C120.942 13.0996 121.39 13.6094 121.7 14.2656C122.011 14.916 122.166 15.6777 122.166 16.5508V17.4561H115.513C115.53 18.5869 115.812 19.4482 116.357 20.04C116.901 20.6318 117.669 20.9277 118.659 20.9277C119.269 20.9277 119.808 20.8721 120.276 20.7607C120.745 20.6494 121.232 20.4854 121.735 20.2686V21.5518C121.249 21.7686 120.766 21.9268 120.285 22.0264C119.811 22.126 119.248 22.1758 118.598 22.1758C117.672 22.1758 116.863 21.9883 116.172 21.6133C115.486 21.2324 114.953 20.6758 114.572 19.9434C114.192 19.2109 114.001 18.3145 114.001 17.2539C114.001 16.2168 114.174 15.3203 114.52 14.5645C114.871 13.8027 115.363 13.2168 115.996 12.8066C116.635 12.3965 117.385 12.1914 118.246 12.1914ZM118.229 13.3867C117.449 13.3867 116.828 13.6416 116.365 14.1514C115.902 14.6611 115.627 15.373 115.539 16.2871H120.637C120.631 15.7129 120.54 15.209 120.364 14.7754C120.194 14.3359 119.934 13.9961 119.582 13.7559C119.231 13.5098 118.779 13.3867 118.229 13.3867ZM128.714 12.1914C129.534 12.1914 130.237 12.373 130.823 12.7363C131.409 13.0996 131.857 13.6094 132.168 14.2656C132.478 14.916 132.634 15.6777 132.634 16.5508V17.4561H125.98C125.998 18.5869 126.279 19.4482 126.824 20.04C127.369 20.6318 128.136 20.9277 129.127 20.9277C129.736 20.9277 130.275 20.8721 130.744 20.7607C131.213 20.6494 131.699 20.4854 132.203 20.2686V21.5518C131.717 21.7686 131.233 21.9268 130.753 22.0264C130.278 22.126 129.716 22.1758 129.065 22.1758C128.139 22.1758 127.331 21.9883 126.639 21.6133C125.954 21.2324 125.421 20.6758 125.04 19.9434C124.659 19.2109 124.469 18.3145 124.469 17.2539C124.469 16.2168 124.641 15.3203 124.987 14.5645C125.339 13.8027 125.831 13.2168 126.464 12.8066C127.102 12.3965 127.852 12.1914 128.714 12.1914ZM128.696 13.3867C127.917 13.3867 127.296 13.6416 126.833 14.1514C126.37 14.6611 126.094 15.373 126.007 16.2871H131.104C131.098 15.7129 131.008 15.209 130.832 14.7754C130.662 14.3359 130.401 13.9961 130.05 13.7559C129.698 13.5098 129.247 13.3867 128.696 13.3867ZM138.583 20.9805C138.824 20.9805 139.07 20.96 139.322 20.9189C139.574 20.8779 139.779 20.8281 139.937 20.7695V21.9033C139.767 21.9795 139.53 22.0439 139.225 22.0967C138.926 22.1494 138.633 22.1758 138.346 22.1758C137.836 22.1758 137.373 22.0879 136.957 21.9121C136.541 21.7305 136.207 21.4258 135.955 20.998C135.709 20.5703 135.586 19.9785 135.586 19.2227V13.5098H134.215V12.7979L135.595 12.2266L136.175 10.1348H137.054V12.3672H139.875V13.5098H137.054V19.1787C137.054 19.7822 137.192 20.2334 137.467 20.5322C137.748 20.8311 138.121 20.9805 138.583 20.9805ZM143.918 19.9082L144.032 20.1104C143.927 20.5381 143.792 20.9951 143.628 21.4814C143.47 21.9678 143.294 22.4541 143.101 22.9404C142.913 23.4326 142.723 23.8926 142.529 24.3203H141.439C141.563 23.8516 141.683 23.3564 141.8 22.835C141.917 22.3193 142.022 21.8096 142.116 21.3057C142.216 20.7959 142.295 20.3301 142.354 19.9082H143.918ZM153.313 22L158.586 10.4863H151.581V9.15039H160.151V10.2754L154.912 22H153.313ZM171.242 22L169.66 17.9219H164.51L162.936 22H161.425L166.452 9.09766H167.797L172.789 22H171.242ZM169.212 16.5947L167.709 12.543C167.674 12.4375 167.615 12.2646 167.533 12.0244C167.457 11.7842 167.378 11.5352 167.296 11.2773C167.214 11.0195 167.146 10.8115 167.094 10.6533C167.035 10.8936 166.971 11.1338 166.9 11.374C166.836 11.6084 166.771 11.8281 166.707 12.0332C166.643 12.2324 166.587 12.4023 166.54 12.543L165.011 16.5947H169.212ZM51.0215 52H49.2549L44.623 45.751L43.252 46.9814V52H41.7578V39.1504H43.252V45.5576C43.5859 45.1768 43.9287 44.7988 44.2803 44.4238C44.6318 44.043 44.9805 43.6592 45.3262 43.2725L49.0791 39.1504H50.8281L45.7129 44.7227L51.0215 52ZM51.3991 42.3672H52.9635L55.0905 47.957C55.2135 48.2852 55.3278 48.6016 55.4332 48.9062C55.5387 49.2051 55.6325 49.4922 55.7145 49.7676C55.7965 50.043 55.861 50.3096 55.9079 50.5674H55.9694C56.0514 50.2744 56.1686 49.8906 56.3209 49.416C56.4733 48.9355 56.6373 48.4463 56.8131 47.9482L58.8258 42.3672H60.3991L56.2067 53.415C55.984 54.0068 55.7233 54.5225 55.4245 54.9619C55.1315 55.4014 54.7741 55.7383 54.3522 55.9727C53.9303 56.2129 53.4205 56.333 52.8229 56.333C52.5475 56.333 52.3043 56.3154 52.0934 56.2803C51.8825 56.251 51.7008 56.2158 51.5485 56.1748V55.0059C51.6774 55.0352 51.8327 55.0615 52.0143 55.085C52.2018 55.1084 52.3952 55.1201 52.5944 55.1201C52.9577 55.1201 53.2711 55.0498 53.5348 54.9092C53.8043 54.7744 54.0358 54.5752 54.2291 54.3115C54.4225 54.0479 54.5895 53.7344 54.7301 53.3711L55.2575 52.0176L51.3991 42.3672ZM63.7561 42.3672V52H62.2971V42.3672H63.7561ZM63.0442 38.7637C63.2845 38.7637 63.4895 38.8428 63.6595 39.001C63.8352 39.1533 63.9231 39.3936 63.9231 39.7217C63.9231 40.0439 63.8352 40.2842 63.6595 40.4424C63.4895 40.6006 63.2845 40.6797 63.0442 40.6797C62.7923 40.6797 62.5813 40.6006 62.4114 40.4424C62.2473 40.2842 62.1653 40.0439 62.1653 39.7217C62.1653 39.3936 62.2473 39.1533 62.4114 39.001C62.5813 38.8428 62.7923 38.7637 63.0442 38.7637ZM69.328 52L65.6718 42.3672H67.2362L69.3544 48.1943C69.5009 48.5928 69.6503 49.0322 69.8027 49.5127C69.955 49.9932 70.0605 50.3799 70.1191 50.6729H70.1806C70.2509 50.3799 70.3681 49.9932 70.5321 49.5127C70.6962 49.0264 70.8456 48.5869 70.9804 48.1943L73.0986 42.3672H74.663L70.998 52H69.328ZM78.2398 49.9082L78.3541 50.1104C78.2486 50.5381 78.1138 50.9951 77.9498 51.4814C77.7916 51.9678 77.6158 52.4541 77.4224 52.9404C77.2349 53.4326 77.0445 53.8926 76.8511 54.3203H75.7613C75.8843 53.8516 76.0045 53.3564 76.1216 52.835C76.2388 52.3193 76.3443 51.8096 76.438 51.3057C76.5377 50.7959 76.6168 50.3301 76.6754 49.9082H78.2398ZM94.4637 45.5576C94.4637 46.6006 94.3846 47.5322 94.2264 48.3525C94.0682 49.1729 93.8192 49.8672 93.4793 50.4355C93.1395 51.0039 92.7 51.4375 92.161 51.7363C91.6219 52.0293 90.9745 52.1758 90.2186 52.1758C89.2635 52.1758 88.4725 51.915 87.8455 51.3936C87.2245 50.8721 86.7586 50.1191 86.4481 49.1348C86.1434 48.1445 85.9911 46.9521 85.9911 45.5576C85.9911 44.1865 86.1287 43.0088 86.4041 42.0244C86.6854 41.0342 87.1366 40.2754 87.7577 39.748C88.3787 39.2148 89.1991 38.9482 90.2186 38.9482C91.1854 38.9482 91.9823 39.2119 92.6092 39.7393C93.2362 40.2607 93.702 41.0166 94.0067 42.0068C94.3114 42.9912 94.4637 44.1748 94.4637 45.5576ZM87.4588 45.5576C87.4588 46.7529 87.5496 47.749 87.7313 48.5459C87.9129 49.3428 88.2059 49.9404 88.6102 50.3389C89.0204 50.7314 89.5565 50.9277 90.2186 50.9277C90.8807 50.9277 91.4139 50.7314 91.8182 50.3389C92.2284 49.9463 92.5243 49.3516 92.7059 48.5547C92.8934 47.7578 92.9871 46.7588 92.9871 45.5576C92.9871 44.3799 92.8963 43.3955 92.7147 42.6045C92.533 41.8076 92.2401 41.21 91.8358 40.8115C91.4315 40.4072 90.8924 40.2051 90.2186 40.2051C89.5448 40.2051 89.0057 40.4072 88.6014 40.8115C88.1971 41.21 87.9041 41.8076 87.7225 42.6045C87.5467 43.3955 87.4588 44.3799 87.4588 45.5576ZM100.879 38.9658C101.624 38.9658 102.283 39.083 102.857 39.3174C103.431 39.5518 103.879 39.8975 104.202 40.3545C104.53 40.8057 104.694 41.3623 104.694 42.0244C104.694 42.5459 104.58 43.0029 104.351 43.3955C104.128 43.7822 103.827 44.1221 103.446 44.415C103.065 44.7021 102.643 44.96 102.18 45.1885C102.731 45.4404 103.226 45.7246 103.666 46.041C104.111 46.3574 104.462 46.7295 104.72 47.1572C104.978 47.585 105.107 48.0918 105.107 48.6777C105.107 49.3984 104.931 50.0225 104.58 50.5498C104.234 51.0713 103.748 51.4727 103.121 51.7539C102.494 52.0352 101.758 52.1758 100.915 52.1758C100.006 52.1758 99.2329 52.041 98.5942 51.7715C97.9614 51.4961 97.478 51.1035 97.144 50.5938C96.8159 50.0781 96.6518 49.46 96.6518 48.7393C96.6518 48.1475 96.7778 47.6348 97.0298 47.2012C97.2817 46.7617 97.6157 46.3838 98.0317 46.0674C98.4477 45.751 98.9018 45.4844 99.394 45.2676C98.9663 45.0332 98.5737 44.7666 98.2163 44.4678C97.8647 44.1689 97.5835 43.8203 97.3725 43.4219C97.1675 43.0176 97.0649 42.5488 97.0649 42.0156C97.0649 41.3652 97.229 40.8145 97.5571 40.3633C97.8911 39.9062 98.3452 39.5605 98.9194 39.3262C99.4995 39.0859 100.153 38.9658 100.879 38.9658ZM98.0845 48.748C98.0845 49.4043 98.3159 49.9463 98.7788 50.374C99.2417 50.7959 99.9419 51.0068 100.879 51.0068C101.77 51.0068 102.458 50.7959 102.945 50.374C103.431 49.9463 103.674 49.3867 103.674 48.6953C103.674 48.2676 103.563 47.8926 103.34 47.5703C103.118 47.2422 102.801 46.9492 102.391 46.6914C101.981 46.4336 101.498 46.1992 100.941 45.9883L100.624 45.874C100.085 46.0967 99.6255 46.3457 99.2446 46.6211C98.8696 46.8906 98.5825 47.1982 98.3833 47.5439C98.1841 47.8896 98.0845 48.291 98.0845 48.748ZM100.862 40.1611C100.17 40.1611 99.605 40.3281 99.1655 40.6621C98.7261 40.9902 98.5063 41.4648 98.5063 42.0859C98.5063 42.5312 98.6118 42.9092 98.8227 43.2197C99.0395 43.5244 99.3325 43.7881 99.7016 44.0107C100.071 44.2275 100.484 44.4297 100.941 44.6172C101.386 44.4297 101.782 44.2246 102.127 44.002C102.473 43.7734 102.746 43.5039 102.945 43.1934C103.144 42.8828 103.244 42.5107 103.244 42.0771C103.244 41.4561 103.024 40.9814 102.584 40.6533C102.151 40.3252 101.577 40.1611 100.862 40.1611ZM112.727 52H111.303V42.8945C111.303 42.5488 111.303 42.2529 111.303 42.0068C111.309 41.7549 111.315 41.5264 111.32 41.3213C111.332 41.1104 111.347 40.8965 111.364 40.6797C111.183 40.8672 111.013 41.0283 110.855 41.1631C110.696 41.292 110.5 41.4531 110.266 41.6465L108.798 42.8242L108.033 41.8311L111.514 39.1504H112.727V52ZM125.901 42.1475C125.901 42.7217 125.79 43.2197 125.567 43.6416C125.344 44.0635 125.034 44.4092 124.636 44.6787C124.237 44.9424 123.768 45.127 123.229 45.2324V45.3027C124.249 45.4316 125.013 45.7598 125.523 46.2871C126.039 46.8145 126.297 47.5059 126.297 48.3613C126.297 49.1055 126.121 49.7646 125.769 50.3389C125.424 50.9131 124.89 51.3643 124.17 51.6924C123.455 52.0146 122.538 52.1758 121.419 52.1758C120.739 52.1758 120.109 52.1201 119.529 52.0088C118.955 51.9033 118.404 51.7246 117.877 51.4727V50.1016C118.41 50.3652 118.99 50.5732 119.617 50.7256C120.244 50.8721 120.85 50.9453 121.436 50.9453C122.608 50.9453 123.455 50.7139 123.976 50.251C124.498 49.7822 124.759 49.1436 124.759 48.335C124.759 47.7783 124.612 47.3301 124.319 46.9902C124.032 46.6445 123.616 46.3926 123.071 46.2344C122.532 46.0703 121.882 45.9883 121.12 45.9883H119.837V44.7402H121.129C121.826 44.7402 122.418 44.6377 122.904 44.4326C123.39 44.2275 123.76 43.9404 124.011 43.5713C124.269 43.1963 124.398 42.7539 124.398 42.2441C124.398 41.5938 124.181 41.0928 123.748 40.7412C123.314 40.3838 122.725 40.2051 121.981 40.2051C121.524 40.2051 121.108 40.252 120.733 40.3457C120.358 40.4395 120.007 40.5684 119.678 40.7324C119.35 40.8965 119.022 41.0869 118.694 41.3037L117.956 40.3018C118.425 39.9385 118.996 39.625 119.67 39.3613C120.344 39.0977 121.108 38.9658 121.964 38.9658C123.276 38.9658 124.261 39.2646 124.917 39.8623C125.573 40.46 125.901 41.2217 125.901 42.1475ZM137.037 52H128.617V50.7783L132.053 47.2891C132.692 46.6445 133.228 46.0703 133.662 45.5664C134.101 45.0625 134.435 44.5674 134.663 44.0811C134.892 43.5889 135.006 43.0498 135.006 42.4639C135.006 41.7373 134.789 41.1836 134.356 40.8027C133.928 40.416 133.363 40.2227 132.66 40.2227C132.044 40.2227 131.499 40.3281 131.025 40.5391C130.55 40.75 130.064 41.0488 129.566 41.4355L128.784 40.4512C129.123 40.1641 129.493 39.9092 129.891 39.6865C130.295 39.4639 130.726 39.2881 131.183 39.1592C131.646 39.0303 132.138 38.9658 132.66 38.9658C133.451 38.9658 134.133 39.1035 134.707 39.3789C135.282 39.6543 135.724 40.0469 136.035 40.5566C136.351 41.0664 136.509 41.6729 136.509 42.376C136.509 43.0557 136.374 43.6885 136.105 44.2744C135.835 44.8545 135.457 45.4316 134.971 46.0059C134.485 46.5742 133.916 47.1777 133.266 47.8164L130.471 50.6025V50.6641H137.037V52Z" fill="#9DA4BD"/>
<path fill-rule="evenodd" clip-rule="evenodd" d="M20 16.3636C20 22.0909 12 27 12 27C12 27 4 22.0909 4 16.3636C4 12.2968 7.58172 9 12 9C16.4183 9 20 12.2968 20 16.3636V16.3636Z" stroke="#9DA4BD" stroke-linecap="round" stroke-linejoin="round"/>
<path fill-rule="evenodd" clip-rule="evenodd" d="M12 20C13.6569 20 15 18.6569 15 17C15 15.3431 13.6569 14 12 14C10.3431 14 9 15.3431 9 17C9 18.6569 10.3431 20 12 20Z" stroke="#9DA4BD" stroke-linecap="round" stroke-linejoin="round"/>
<path d="M45.7393 95.0479H49.3604V96.2607H45.7393V100.005H44.5176V96.2607H40.9141V95.0479H44.5176V91.2861H45.7393V95.0479ZM59.5026 92.1738C59.5026 92.9941 59.2711 93.665 58.8082 94.1865C58.3512 94.708 57.7008 95.0566 56.8571 95.2324V95.3027C57.8883 95.4316 58.653 95.7598 59.151 96.2871C59.6491 96.8145 59.8981 97.5059 59.8981 98.3613C59.8981 99.5859 59.4733 100.529 58.6237 101.191C57.7741 101.848 56.567 102.176 55.0026 102.176C54.3229 102.176 53.6989 102.123 53.1305 102.018C52.568 101.918 52.0202 101.739 51.487 101.481V100.093C52.0436 100.368 52.6354 100.579 53.2623 100.726C53.8952 100.866 54.4928 100.937 55.0553 100.937C57.276 100.937 58.3864 100.066 58.3864 98.3262C58.3864 96.7676 57.1618 95.9883 54.7125 95.9883H53.4469V94.7314H54.7301C55.7321 94.7314 56.526 94.5117 57.112 94.0723C57.6979 93.627 57.9909 93.0117 57.9909 92.2266C57.9909 91.5996 57.7741 91.1074 57.3405 90.75C56.9127 90.3926 56.3297 90.2139 55.5914 90.2139C55.0289 90.2139 54.4987 90.29 54.0006 90.4424C53.5026 90.5947 52.9342 90.876 52.2955 91.2861L51.5573 90.3018C52.0846 89.8857 52.6911 89.5605 53.3766 89.3262C54.068 89.0859 54.7946 88.9658 55.5563 88.9658C56.8043 88.9658 57.7741 89.2529 58.4655 89.8271C59.1569 90.3955 59.5026 91.1777 59.5026 92.1738ZM66.4544 88.9658C67.6262 88.9658 68.555 89.2383 69.2405 89.7832C69.9261 90.3281 70.2688 91.0811 70.2688 92.042C70.2688 92.6748 70.0725 93.252 69.68 93.7734C69.2874 94.2949 68.6604 94.7695 67.7991 95.1973C68.8421 95.6953 69.5833 96.2197 70.0227 96.7705C70.4622 97.3154 70.6819 97.9482 70.6819 98.6689C70.6819 99.7354 70.3098 100.588 69.5657 101.227C68.8216 101.859 67.802 102.176 66.5071 102.176C65.136 102.176 64.0813 101.877 63.343 101.279C62.6048 100.676 62.2356 99.8232 62.2356 98.7217C62.2356 97.251 63.1321 96.1055 64.9251 95.2852C64.1165 94.8281 63.5364 94.3359 63.1848 93.8086C62.8333 93.2754 62.6575 92.6807 62.6575 92.0244C62.6575 91.0928 63.0003 90.3516 63.6858 89.8008C64.3772 89.2441 65.3001 88.9658 66.4544 88.9658ZM63.677 98.7568C63.677 99.46 63.9202 100.008 64.4065 100.4C64.8987 100.793 65.5872 100.989 66.472 100.989C67.345 100.989 68.0247 100.784 68.511 100.374C68.9973 99.9639 69.2405 99.4014 69.2405 98.6865C69.2405 98.1182 69.012 97.6143 68.555 97.1748C68.0979 96.7295 67.3011 96.2988 66.1643 95.8828C65.2913 96.2578 64.6585 96.6738 64.2659 97.1309C63.8733 97.582 63.677 98.124 63.677 98.7568ZM66.4368 90.1523C65.7044 90.1523 65.1302 90.3281 64.7141 90.6797C64.2981 91.0312 64.0901 91.5 64.0901 92.0859C64.0901 92.625 64.263 93.0879 64.6087 93.4746C64.9544 93.8613 65.593 94.248 66.5247 94.6348C67.3626 94.2832 67.9544 93.9053 68.3001 93.501C68.6516 93.0967 68.8274 92.625 68.8274 92.0859C68.8274 91.4941 68.6136 91.0254 68.1858 90.6797C67.7639 90.3281 67.1809 90.1523 66.4368 90.1523ZM86.4136 95.5576C86.4136 97.7783 86.0621 99.4365 85.3589 100.532C84.6617 101.628 83.5923 102.176 82.1509 102.176C80.7681 102.176 79.7164 101.616 78.9957 100.497C78.275 99.3721 77.9146 97.7256 77.9146 95.5576C77.9146 93.3193 78.2632 91.6582 78.9605 90.5742C79.6578 89.4902 80.7212 88.9482 82.1509 88.9482C83.5455 88.9482 84.6031 89.5137 85.3238 90.6445C86.0504 91.7754 86.4136 93.4131 86.4136 95.5576ZM79.3912 95.5576C79.3912 97.4268 79.6109 98.7891 80.0504 99.6445C80.4898 100.494 81.19 100.919 82.1509 100.919C83.1236 100.919 83.8267 100.488 84.2603 99.627C84.6998 98.7598 84.9195 97.4033 84.9195 95.5576C84.9195 93.7119 84.6998 92.3613 84.2603 91.5059C83.8267 90.6445 83.1236 90.2139 82.1509 90.2139C81.19 90.2139 80.4898 90.6387 80.0504 91.4883C79.6109 92.332 79.3912 93.6885 79.3912 95.5576ZM97.6105 99.0469H95.7033V102H94.3059V99.0469H88.0568V97.7725L94.1564 89.0801H95.7033V97.7197H97.6105V99.0469ZM94.3059 97.7197V93.4482C94.3059 92.6104 94.3352 91.6641 94.3937 90.6094H94.3234C94.0422 91.1719 93.7785 91.6377 93.5324 92.0068L89.5158 97.7197H94.3059ZM108.271 99.0469H106.364V102H104.967V99.0469H98.7176V97.7725L104.817 89.0801H106.364V97.7197H108.271V99.0469ZM104.967 97.7197V93.4482C104.967 92.6104 104.996 91.6641 105.055 90.6094H104.984C104.703 91.1719 104.439 91.6377 104.193 92.0068L100.177 97.7197H104.967ZM120.32 102H118.897V92.8418C118.897 92.0801 118.92 91.3594 118.967 90.6797C118.844 90.8027 118.706 90.9316 118.554 91.0664C118.401 91.2012 117.704 91.7725 116.462 92.7803L115.689 91.7783L119.09 89.1504H120.32V102ZM130.981 102H129.557V92.8418C129.557 92.0801 129.581 91.3594 129.628 90.6797C129.505 90.8027 129.367 90.9316 129.215 91.0664C129.062 91.2012 128.365 91.7725 127.123 92.7803L126.349 91.7783L129.751 89.1504H130.981V102ZM141.642 102H140.218V92.8418C140.218 92.0801 140.242 91.3594 140.288 90.6797C140.165 90.8027 140.028 90.9316 139.875 91.0664C139.723 91.2012 139.026 91.7725 137.784 92.7803L137.01 91.7783L140.412 89.1504H141.642V102ZM157.339 102H155.915V92.8418C155.915 92.0801 155.938 91.3594 155.985 90.6797C155.862 90.8027 155.724 90.9316 155.572 91.0664C155.42 91.2012 154.722 91.7725 153.48 92.7803L152.707 91.7783L156.108 89.1504H157.339V102ZM167.999 102H166.576V92.8418C166.576 92.0801 166.599 91.3594 166.646 90.6797C166.523 90.8027 166.385 90.9316 166.233 91.0664C166.08 91.2012 165.383 91.7725 164.141 92.7803L163.368 91.7783L166.769 89.1504H167.999V102ZM183.696 102H182.272V92.8418C182.272 92.0801 182.296 91.3594 182.342 90.6797C182.219 90.8027 182.082 90.9316 181.929 91.0664C181.777 91.2012 181.08 91.7725 179.837 92.7803L179.064 91.7783L182.465 89.1504H183.696V102ZM194.357 102H192.933V92.8418C192.933 92.0801 192.956 91.3594 193.003 90.6797C192.88 90.8027 192.742 90.9316 192.59 91.0664C192.438 91.2012 191.74 91.7725 190.498 92.7803L189.725 91.7783L193.126 89.1504H194.357V102Z" fill="#9DA4BD"/>
<path fill-rule="evenodd" clip-rule="evenodd" d="M19.9996 99.0028V101.416C20.0014 101.869 19.8122 102.302 19.4783 102.608C19.1445 102.915 18.697 103.066 18.2458 103.025C15.7703 102.756 13.3924 101.91 11.3032 100.555C9.35943 99.3203 7.71147 97.6724 6.47633 95.7286C5.11675 93.6299 4.27066 91.2405 4.0066 88.7538C3.96595 88.304 4.11622 87.8579 4.42071 87.5243C4.7252 87.1907 5.15586 87.0005 5.6075 87.0001H8.02093C8.82851 86.9921 9.51685 87.5841 9.62988 88.3838C9.73174 89.1561 9.92065 89.9145 10.193 90.6444C10.414 91.2323 10.2727 91.8952 9.83099 92.3418L8.80931 93.3635C9.95453 95.3775 11.6221 97.0451 13.6362 98.1903L14.6578 97.1686C15.1045 96.727 15.7673 96.5856 16.3553 96.8066C17.0852 97.079 17.8435 97.2679 18.6159 97.3698C19.4248 97.4839 20.0198 98.1861 19.9996 99.0028Z" stroke="#9DA4BD" stroke-linecap="round" stroke-linejoin="round"/>
<path d="M46.0293 142.209C47.2949 142.209 48.2764 142.643 48.9736 143.51C49.6768 144.371 50.0283 145.593 50.0283 147.175C50.0283 148.757 49.6738 149.987 48.9648 150.866C48.2617 151.739 47.2832 152.176 46.0293 152.176C45.4023 152.176 44.8281 152.062 44.3066 151.833C43.791 151.599 43.3574 151.241 43.0059 150.761H42.9004L42.5928 152H41.5469V138.324H43.0059V141.646C43.0059 142.391 42.9824 143.059 42.9355 143.65H43.0059C43.6855 142.689 44.6934 142.209 46.0293 142.209ZM45.8184 143.431C44.8223 143.431 44.1045 143.718 43.665 144.292C43.2256 144.86 43.0059 145.821 43.0059 147.175C43.0059 148.528 43.2314 149.498 43.6826 150.084C44.1338 150.664 44.8574 150.954 45.8535 150.954C46.75 150.954 47.418 150.629 47.8574 149.979C48.2969 149.322 48.5166 148.382 48.5166 147.157C48.5166 145.903 48.2969 144.969 47.8574 144.354C47.418 143.738 46.7383 143.431 45.8184 143.431ZM58.8698 152L58.5797 150.629H58.5094C58.0289 151.232 57.5485 151.643 57.068 151.859C56.5934 152.07 55.9987 152.176 55.2838 152.176C54.3287 152.176 53.5787 151.93 53.0338 151.438C52.4948 150.945 52.2252 150.245 52.2252 149.337C52.2252 147.392 53.7809 146.372 56.8922 146.278L58.527 146.226V145.628C58.527 144.872 58.3629 144.315 58.0348 143.958C57.7125 143.595 57.194 143.413 56.4791 143.413C55.6764 143.413 54.7682 143.659 53.7545 144.151L53.3063 143.035C53.7809 142.777 54.2995 142.575 54.862 142.429C55.4303 142.282 55.9987 142.209 56.567 142.209C57.7155 142.209 58.5651 142.464 59.1159 142.974C59.6725 143.483 59.9508 144.301 59.9508 145.426V152H58.8698ZM55.5739 150.972C56.4821 150.972 57.194 150.723 57.7096 150.225C58.2311 149.727 58.4918 149.029 58.4918 148.133V147.263L57.0329 147.324C55.8727 147.365 55.0348 147.547 54.5192 147.869C54.0094 148.186 53.7545 148.681 53.7545 149.354C53.7545 149.882 53.9127 150.283 54.2291 150.559C54.5514 150.834 54.9996 150.972 55.5739 150.972ZM67.72 142.191C68.1477 142.191 68.5315 142.227 68.8714 142.297L68.6692 143.65C68.2708 143.562 67.9192 143.519 67.6145 143.519C66.8352 143.519 66.1673 143.835 65.6106 144.468C65.0598 145.101 64.7845 145.889 64.7845 146.832V152H63.3255V142.367H64.5296L64.6966 144.151H64.7669C65.1243 143.524 65.555 143.041 66.0589 142.701C66.5628 142.361 67.1165 142.191 67.72 142.191ZM75.5155 142.209C76.7812 142.209 77.7626 142.643 78.4599 143.51C79.163 144.371 79.5146 145.593 79.5146 147.175C79.5146 148.757 79.1601 149.987 78.4511 150.866C77.748 151.739 76.7695 152.176 75.5155 152.176C74.8886 152.176 74.3144 152.062 73.7929 151.833C73.2773 151.599 72.8437 151.241 72.4921 150.761H72.3866L72.079 152H71.0331V138.324H72.4921V141.646C72.4921 142.391 72.4687 143.059 72.4218 143.65H72.4921C73.1718 142.689 74.1796 142.209 75.5155 142.209ZM75.3046 143.431C74.3085 143.431 73.5907 143.718 73.1513 144.292C72.7118 144.86 72.4921 145.821 72.4921 147.175C72.4921 148.528 72.7177 149.498 73.1689 150.084C73.62 150.664 74.3437 150.954 75.3398 150.954C76.2362 150.954 76.9042 150.629 77.3437 149.979C77.7831 149.322 78.0029 148.382 78.0029 147.157C78.0029 145.903 77.7831 144.969 77.3437 144.354C76.9042 143.738 76.2245 143.431 75.3046 143.431ZM86.5015 152.176C85.0777 152.176 83.9527 151.742 83.1265 150.875C82.3062 150.008 81.8961 148.804 81.8961 147.263C81.8961 145.71 82.2769 144.477 83.0386 143.562C83.8062 142.648 84.8345 142.191 86.1236 142.191C87.3306 142.191 88.2857 142.59 88.9888 143.387C89.692 144.178 90.0435 145.224 90.0435 146.524V147.447H83.4078C83.4371 148.578 83.7212 149.437 84.2603 150.022C84.8052 150.608 85.5699 150.901 86.5543 150.901C87.5914 150.901 88.6168 150.685 89.6304 150.251V151.552C89.1148 151.774 88.6255 151.933 88.1627 152.026C87.7056 152.126 87.1519 152.176 86.5015 152.176ZM86.106 143.413C85.3326 143.413 84.7144 143.665 84.2515 144.169C83.7945 144.673 83.525 145.37 83.4429 146.261H88.4791C88.4791 145.341 88.274 144.638 87.8638 144.151C87.4537 143.659 86.8677 143.413 86.106 143.413ZM97.2941 142.191C97.7219 142.191 98.1057 142.227 98.4455 142.297L98.2434 143.65C97.8449 143.562 97.4934 143.519 97.1887 143.519C96.4094 143.519 95.7414 143.835 95.1848 144.468C94.634 145.101 94.3586 145.889 94.3586 146.832V152H92.8996V142.367H94.1037L94.2707 144.151H94.341C94.6984 143.524 95.1291 143.041 95.633 142.701C96.1369 142.361 96.6906 142.191 97.2941 142.191ZM106.821 149.372C106.821 150.269 106.487 150.96 105.819 151.446C105.151 151.933 104.214 152.176 103.007 152.176C101.729 152.176 100.733 151.974 100.018 151.569V150.216C100.481 150.45 100.976 150.635 101.504 150.77C102.037 150.904 102.55 150.972 103.042 150.972C103.804 150.972 104.389 150.852 104.8 150.611C105.21 150.365 105.415 149.993 105.415 149.495C105.415 149.12 105.251 148.801 104.923 148.537C104.6 148.268 103.968 147.951 103.024 147.588C102.128 147.254 101.489 146.964 101.108 146.718C100.733 146.466 100.452 146.182 100.264 145.865C100.083 145.549 99.992 145.171 99.992 144.731C99.992 143.946 100.311 143.328 100.95 142.877C101.589 142.42 102.465 142.191 103.578 142.191C104.615 142.191 105.629 142.402 106.619 142.824L106.1 144.011C105.134 143.612 104.258 143.413 103.472 143.413C102.781 143.413 102.26 143.521 101.908 143.738C101.556 143.955 101.381 144.254 101.381 144.635C101.381 144.893 101.445 145.112 101.574 145.294C101.709 145.476 101.923 145.648 102.216 145.812C102.509 145.977 103.071 146.214 103.903 146.524C105.046 146.94 105.816 147.359 106.215 147.781C106.619 148.203 106.821 148.733 106.821 149.372ZM116.155 152V145.769C116.155 144.983 115.976 144.397 115.619 144.011C115.261 143.624 114.702 143.431 113.94 143.431C112.926 143.431 112.185 143.706 111.716 144.257C111.253 144.808 111.022 145.71 111.022 146.964V152H109.563V138.324H111.022V142.464C111.022 142.962 110.999 143.375 110.952 143.703H111.04C111.327 143.24 111.734 142.877 112.261 142.613C112.794 142.344 113.401 142.209 114.081 142.209C115.258 142.209 116.14 142.49 116.726 143.053C117.318 143.609 117.614 144.497 117.614 145.716V152H116.155ZM129.294 147.175C129.294 148.745 128.899 149.973 128.108 150.857C127.317 151.736 126.224 152.176 124.829 152.176C123.968 152.176 123.203 151.974 122.535 151.569C121.867 151.165 121.352 150.585 120.988 149.829C120.625 149.073 120.443 148.188 120.443 147.175C120.443 145.604 120.836 144.383 121.621 143.51C122.406 142.631 123.496 142.191 124.891 142.191C126.238 142.191 127.308 142.64 128.099 143.536C128.896 144.433 129.294 145.646 129.294 147.175ZM121.955 147.175C121.955 148.405 122.201 149.343 122.693 149.987C123.186 150.632 123.909 150.954 124.864 150.954C125.819 150.954 126.543 150.635 127.035 149.996C127.533 149.352 127.782 148.411 127.782 147.175C127.782 145.95 127.533 145.021 127.035 144.389C126.543 143.75 125.814 143.431 124.847 143.431C123.892 143.431 123.171 143.744 122.685 144.371C122.198 144.998 121.955 145.933 121.955 147.175ZM136.703 152.176C136.076 152.176 135.502 152.062 134.98 151.833C134.465 151.599 134.031 151.241 133.679 150.761H133.574C133.644 151.323 133.679 151.856 133.679 152.36V156.324H132.22V142.367H133.407L133.609 143.686H133.679C134.054 143.158 134.491 142.777 134.989 142.543C135.487 142.309 136.058 142.191 136.703 142.191C137.98 142.191 138.965 142.628 139.656 143.501C140.353 144.374 140.702 145.599 140.702 147.175C140.702 148.757 140.347 149.987 139.638 150.866C138.935 151.739 137.957 152.176 136.703 152.176ZM136.492 143.431C135.508 143.431 134.796 143.703 134.356 144.248C133.917 144.793 133.691 145.66 133.679 146.85V147.175C133.679 148.528 133.905 149.498 134.356 150.084C134.807 150.664 135.531 150.954 136.527 150.954C137.359 150.954 138.01 150.617 138.478 149.943C138.953 149.27 139.19 148.341 139.19 147.157C139.19 145.956 138.953 145.036 138.478 144.397C138.01 143.753 137.347 143.431 136.492 143.431ZM157.19 145.593C157.19 146.425 157.061 147.187 156.803 147.878C156.545 148.569 156.182 149.105 155.713 149.486C155.245 149.867 154.705 150.058 154.096 150.058C153.592 150.058 153.167 149.905 152.822 149.601C152.476 149.296 152.271 148.906 152.206 148.432H152.136C151.902 148.941 151.565 149.34 151.125 149.627C150.692 149.914 150.176 150.058 149.579 150.058C148.7 150.058 148.011 149.759 147.513 149.161C147.021 148.558 146.775 147.74 146.775 146.709C146.775 145.514 147.121 144.544 147.812 143.8C148.503 143.05 149.412 142.675 150.537 142.675C150.935 142.675 151.386 142.713 151.89 142.789C152.394 142.859 152.848 142.959 153.252 143.088L153.033 147.219V147.412C153.033 148.455 153.422 148.977 154.202 148.977C154.735 148.977 155.168 148.663 155.502 148.036C155.836 147.403 156.003 146.583 156.003 145.575C156.003 144.515 155.787 143.586 155.353 142.789C154.919 141.992 154.301 141.38 153.498 140.952C152.702 140.519 151.785 140.302 150.747 140.302C149.441 140.302 148.304 140.574 147.337 141.119C146.371 141.658 145.632 142.432 145.122 143.439C144.613 144.441 144.358 145.602 144.358 146.92C144.358 148.707 144.829 150.081 145.773 151.042C146.716 152.003 148.076 152.483 149.851 152.483C151.081 152.483 152.359 152.231 153.683 151.728V152.896C152.558 153.389 151.281 153.635 149.851 153.635C147.724 153.635 146.072 153.052 144.894 151.886C143.722 150.714 143.136 149.079 143.136 146.981C143.136 145.458 143.45 144.102 144.077 142.912C144.704 141.723 145.597 140.803 146.757 140.152C147.917 139.496 149.247 139.168 150.747 139.168C152.007 139.168 153.126 139.435 154.105 139.968C155.089 140.495 155.848 141.248 156.381 142.227C156.92 143.199 157.19 144.321 157.19 145.593ZM148.102 146.744C148.102 148.232 148.673 148.977 149.816 148.977C151.029 148.977 151.688 148.06 151.793 146.226L151.916 143.932C151.495 143.814 151.035 143.756 150.537 143.756C149.775 143.756 149.177 144.02 148.744 144.547C148.316 145.074 148.102 145.807 148.102 146.744ZM164.238 152.176C162.814 152.176 161.689 151.742 160.863 150.875C160.043 150.008 159.633 148.804 159.633 147.263C159.633 145.71 160.014 144.477 160.775 143.562C161.543 142.648 162.571 142.191 163.86 142.191C165.067 142.191 166.022 142.59 166.726 143.387C167.429 144.178 167.78 145.224 167.78 146.524V147.447H161.145C161.174 148.578 161.458 149.437 161.997 150.022C162.542 150.608 163.307 150.901 164.291 150.901C165.328 150.901 166.354 150.685 167.367 150.251V151.552C166.852 151.774 166.362 151.933 165.899 152.026C165.442 152.126 164.889 152.176 164.238 152.176ZM163.843 143.413C163.069 143.413 162.451 143.665 161.988 144.169C161.531 144.673 161.262 145.37 161.18 146.261H166.216C166.216 145.341 166.011 144.638 165.601 144.151C165.19 143.659 164.605 143.413 163.843 143.413ZM182.915 152V145.733C182.915 144.966 182.751 144.392 182.423 144.011C182.094 143.624 181.585 143.431 180.893 143.431C179.985 143.431 179.314 143.691 178.881 144.213C178.447 144.734 178.23 145.537 178.23 146.621V152H176.771V145.733C176.771 144.966 176.607 144.392 176.279 144.011C175.951 143.624 175.438 143.431 174.741 143.431C173.827 143.431 173.156 143.706 172.728 144.257C172.306 144.802 172.095 145.698 172.095 146.946V152H170.636V142.367H171.823L172.06 143.686H172.131C172.406 143.217 172.793 142.851 173.291 142.587C173.795 142.323 174.357 142.191 174.978 142.191C176.484 142.191 177.468 142.736 177.931 143.826H178.002C178.289 143.322 178.705 142.924 179.25 142.631C179.795 142.338 180.416 142.191 181.113 142.191C182.203 142.191 183.017 142.473 183.556 143.035C184.101 143.592 184.374 144.485 184.374 145.716V152H182.915ZM193.672 152L193.382 150.629H193.312C192.831 151.232 192.351 151.643 191.87 151.859C191.396 152.07 190.801 152.176 190.086 152.176C189.131 152.176 188.381 151.93 187.836 151.438C187.297 150.945 187.028 150.245 187.028 149.337C187.028 147.392 188.583 146.372 191.695 146.278L193.329 146.226V145.628C193.329 144.872 193.165 144.315 192.837 143.958C192.515 143.595 191.996 143.413 191.282 143.413C190.479 143.413 189.571 143.659 188.557 144.151L188.109 143.035C188.583 142.777 189.102 142.575 189.664 142.429C190.233 142.282 190.801 142.209 191.369 142.209C192.518 142.209 193.367 142.464 193.918 142.974C194.475 143.483 194.753 144.301 194.753 145.426V152H193.672ZM190.376 150.972C191.284 150.972 191.996 150.723 192.512 150.225C193.034 149.727 193.294 149.029 193.294 148.133V147.263L191.835 147.324C190.675 147.365 189.837 147.547 189.322 147.869C188.812 148.186 188.557 148.681 188.557 149.354C188.557 149.882 188.715 150.283 189.032 150.559C189.354 150.834 189.802 150.972 190.376 150.972ZM199.587 152H198.128V142.367H199.587V152ZM198.005 139.757C198.005 139.423 198.087 139.18 198.251 139.027C198.415 138.869 198.62 138.79 198.866 138.79C199.101 138.79 199.303 138.869 199.473 139.027C199.643 139.186 199.727 139.429 199.727 139.757C199.727 140.085 199.643 140.331 199.473 140.495C199.303 140.653 199.101 140.732 198.866 140.732C198.62 140.732 198.415 140.653 198.251 140.495C198.087 140.331 198.005 140.085 198.005 139.757ZM204.5 152H203.041V138.324H204.5V152ZM207.742 151.068C207.742 150.676 207.83 150.38 208.006 150.181C208.188 149.976 208.446 149.873 208.78 149.873C209.119 149.873 209.383 149.976 209.571 150.181C209.764 150.38 209.861 150.676 209.861 151.068C209.861 151.449 209.764 151.742 209.571 151.947C209.377 152.152 209.114 152.255 208.78 152.255C208.481 152.255 208.232 152.164 208.032 151.982C207.839 151.795 207.742 151.49 207.742 151.068ZM216.962 152.176C215.567 152.176 214.486 151.748 213.719 150.893C212.957 150.031 212.576 148.815 212.576 147.245C212.576 145.634 212.963 144.389 213.736 143.51C214.516 142.631 215.623 142.191 217.058 142.191C217.521 142.191 217.984 142.241 218.447 142.341C218.91 142.44 219.273 142.558 219.537 142.692L219.089 143.932C218.766 143.803 218.415 143.697 218.034 143.615C217.653 143.527 217.316 143.483 217.023 143.483C215.066 143.483 214.088 144.731 214.088 147.228C214.088 148.411 214.325 149.319 214.8 149.952C215.28 150.585 215.989 150.901 216.927 150.901C217.729 150.901 218.553 150.729 219.396 150.383V151.675C218.752 152.009 217.94 152.176 216.962 152.176ZM230.365 147.175C230.365 148.745 229.969 149.973 229.178 150.857C228.387 151.736 227.294 152.176 225.9 152.176C225.039 152.176 224.274 151.974 223.606 151.569C222.938 151.165 222.422 150.585 222.059 149.829C221.696 149.073 221.514 148.188 221.514 147.175C221.514 145.604 221.907 144.383 222.692 143.51C223.477 142.631 224.567 142.191 225.961 142.191C227.309 142.191 228.378 142.64 229.169 143.536C229.966 144.433 230.365 145.646 230.365 147.175ZM223.026 147.175C223.026 148.405 223.272 149.343 223.764 149.987C224.256 150.632 224.98 150.954 225.935 150.954C226.89 150.954 227.614 150.635 228.106 149.996C228.604 149.352 228.853 148.411 228.853 147.175C228.853 145.95 228.604 145.021 228.106 144.389C227.614 143.75 226.884 143.431 225.917 143.431C224.962 143.431 224.242 143.744 223.755 144.371C223.269 144.998 223.026 145.933 223.026 147.175ZM245.569 152V145.733C245.569 144.966 245.405 144.392 245.077 144.011C244.749 143.624 244.239 143.431 243.548 143.431C242.64 143.431 241.969 143.691 241.535 144.213C241.102 144.734 240.885 145.537 240.885 146.621V152H239.426V145.733C239.426 144.966 239.262 144.392 238.934 144.011C238.606 143.624 238.093 143.431 237.396 143.431C236.482 143.431 235.811 143.706 235.383 144.257C234.961 144.802 234.75 145.698 234.75 146.946V152H233.291V142.367H234.478L234.715 143.686H234.785C235.061 143.217 235.447 142.851 235.945 142.587C236.449 142.323 237.012 142.191 237.633 142.191C239.139 142.191 240.123 142.736 240.586 143.826H240.656C240.944 143.322 241.36 142.924 241.904 142.631C242.449 142.338 243.07 142.191 243.768 142.191C244.858 142.191 245.672 142.473 246.211 143.035C246.756 143.592 247.028 144.485 247.028 145.716V152H245.569Z" fill="#9DA4BD"/>
<path d="M40 153.802H248.487V154.698H40V153.802Z" fill="#9DA4BD"/>
<a href="mailto:barbershop@email.com">
<rect fill="black" fill-opacity="0" y="2.74365" width="208.487" height="24.5127"/>
</a>
<path fill-rule="evenodd" clip-rule="evenodd" d="M4.8 138H19.2C20.19 138 21 138.787 21 139.75V150.25C21 151.213 20.19 152 19.2 152H4.8C3.81 152 3 151.213 3 150.25V139.75C3 138.787 3.81 138 4.8 138Z" stroke="#9DA4BD" stroke-linecap="round" stroke-linejoin="round"/>
<path d="M20 140L12 146L4 140" stroke="#9DA4BD" stroke-linecap="round" stroke-linejoin="round"/>
</svg>
