<svg width="15" height="270" viewBox="0 0 15 270" fill="none" xmlns="http://www.w3.org/2000/svg">
<rect x="7" y="210" width="1" height="60" fill="#303030"/>
<path d="M12 168.963L4.14746 168.963L4.14746 167.68L12 167.68L12 168.963ZM12 158.309L12 159.577L8.34766 159.577C7.88932 159.577 7.54736 159.67 7.32178 159.856C7.09619 160.039 6.9834 160.331 6.9834 160.732C6.9834 161.265 7.14095 161.655 7.45605 161.903C7.77116 162.15 8.29932 162.273 9.04053 162.273L12 162.273L12 163.535L6.05957 163.535L6.05957 162.547L6.83838 162.37L6.83838 162.305C6.5555 162.126 6.33708 161.872 6.18311 161.543C6.02913 161.213 5.95215 160.848 5.95215 160.447C5.95215 159.022 6.67725 158.309 8.12744 158.309L12 158.309ZM10.3081 150.362C10.8882 150.362 11.334 150.573 11.6455 150.996C11.9534 151.419 12.1074 152.024 12.1074 152.811C12.1074 153.603 11.9875 154.238 11.7476 154.718L10.6572 154.718C10.9795 154.02 11.1406 153.37 11.1406 152.768C11.1406 151.991 10.9061 151.603 10.437 151.603C10.2866 151.603 10.1613 151.646 10.061 151.732C9.96077 151.818 9.85693 151.959 9.74951 152.156C9.64209 152.353 9.52034 152.627 9.38428 152.978C9.1193 153.662 8.85433 154.126 8.58935 154.369C8.32438 154.609 7.98063 154.729 7.5581 154.729C7.04964 154.729 6.65576 154.525 6.37646 154.117C6.09359 153.705 5.95215 153.146 5.95215 152.441C5.95215 151.743 6.09359 151.082 6.37646 150.459L7.32715 150.867C7.06217 151.508 6.92969 152.047 6.92969 152.484C6.92969 153.15 7.11947 153.483 7.49902 153.483C7.68522 153.483 7.84277 153.397 7.97168 153.225C8.10059 153.05 8.27783 152.67 8.50342 152.086C8.6932 151.596 8.86686 151.239 9.02441 151.017C9.18197 150.795 9.36458 150.631 9.57226 150.523C9.77637 150.416 10.0216 150.362 10.3081 150.362ZM11.0869 144.58C11.0869 144.272 11.0386 143.964 10.9419 143.656L11.8926 143.656C11.9534 143.796 12.0036 143.976 12.043 144.198C12.0859 144.417 12.1074 144.644 12.1074 144.88C12.1074 146.076 11.4772 146.674 10.2168 146.674L7.01562 146.674L7.01562 147.485L6.45703 147.485L5.99512 146.615L4.73828 146.186L4.73828 145.407L6.05957 145.407L6.05957 143.715L7.01562 143.715L7.01562 145.407L10.1953 145.407C10.4997 145.407 10.7253 145.332 10.8721 145.181C11.0153 145.027 11.0869 144.827 11.0869 144.58ZM12 136.547L11.1729 136.799L11.1729 136.842C11.5345 137.129 11.7816 137.417 11.9141 137.707C12.043 137.997 12.1074 138.369 12.1074 138.824C12.1074 139.408 11.9499 139.864 11.6348 140.194C11.3197 140.519 10.8739 140.682 10.2974 140.682C9.68506 140.682 9.22314 140.455 8.91162 140C8.6001 139.546 8.43001 138.853 8.40137 137.922L8.36914 136.896L8.05224 136.896C7.67269 136.896 7.38981 136.985 7.20361 137.164C7.01383 137.34 6.91894 137.614 6.91894 137.986C6.91894 138.29 6.9637 138.582 7.05322 138.862C7.14274 139.141 7.24837 139.409 7.37012 139.667L6.46777 140.075C6.29948 139.753 6.17236 139.401 6.08642 139.017C5.99691 138.634 5.95215 138.273 5.95215 137.932C5.95215 137.177 6.11686 136.608 6.44629 136.224C6.77571 135.838 7.29313 135.644 7.99853 135.644L12 135.644L12 136.547ZM11.1406 138.427C11.1406 137.968 11.0135 137.601 10.7593 137.325C10.5015 137.046 10.1416 136.907 9.67969 136.907L9.16406 136.907L9.19629 137.669C9.21777 138.264 9.31803 138.697 9.49707 138.969C9.67252 139.238 9.94287 139.372 10.3081 139.372C10.5731 139.372 10.779 139.293 10.9258 139.136C11.069 138.978 11.1406 138.742 11.1406 138.427ZM6.05957 126.666L6.75244 126.666L6.94043 127.681C7.06575 127.588 7.21972 127.511 7.40234 127.45C7.58496 127.389 7.77832 127.359 7.98242 127.359C8.59472 127.359 9.07633 127.57 9.42724 127.993C9.77816 128.415 9.95361 128.997 9.95361 129.738C9.95361 129.928 9.93929 130.1 9.91064 130.254C10.0789 130.526 10.2759 130.662 10.5015 130.662C10.6375 130.662 10.7396 130.599 10.8076 130.474C10.8756 130.345 10.9097 130.111 10.9097 129.771L10.9097 128.734C10.9097 128.079 11.0493 127.581 11.3286 127.241C11.6079 126.901 12.0107 126.73 12.5371 126.73C13.2103 126.73 13.7295 127.008 14.0947 127.563C14.46 128.118 14.6426 128.92 14.6426 129.969C14.6426 130.778 14.4993 131.396 14.2129 131.822C13.9264 132.248 13.5182 132.461 12.9883 132.461C12.623 132.461 12.3151 132.347 12.0645 132.118C11.8174 131.885 11.6455 131.561 11.5488 131.146C11.4772 131.314 11.3626 131.453 11.2051 131.564C11.0439 131.672 10.8756 131.726 10.7002 131.726C10.4782 131.726 10.2902 131.663 10.1362 131.538C9.98226 131.412 9.83008 131.226 9.67969 130.979C9.5472 131.287 9.33236 131.538 9.03515 131.731C8.73437 131.921 8.38346 132.016 7.98242 132.016C7.33789 132.016 6.83838 131.813 6.48389 131.409C6.12939 131 5.95215 130.42 5.95215 129.668C5.95215 129.5 5.96468 129.325 5.98974 129.142C6.01123 128.956 6.0345 128.816 6.05957 128.723L6.05957 126.666ZM12.9238 131.333C13.196 131.333 13.4054 131.212 13.5522 130.968C13.6991 130.721 13.7725 130.376 13.7725 129.932C13.7725 129.244 13.674 128.732 13.477 128.396C13.2801 128.059 13.0187 127.891 12.6929 127.891C12.4351 127.891 12.2506 127.984 12.1396 128.17C12.0322 128.353 11.9785 128.694 11.9785 129.196L11.9785 130.152C11.9785 130.514 12.0627 130.802 12.231 131.017C12.4028 131.228 12.6338 131.333 12.9238 131.333ZM7.98242 130.791C8.35482 130.791 8.64127 130.696 8.8418 130.506C9.04232 130.313 9.14258 130.037 9.14258 129.679C9.14258 128.949 8.75228 128.583 7.97168 128.583C7.58496 128.583 7.28776 128.675 7.08008 128.857C6.86881 129.036 6.76318 129.31 6.76318 129.679C6.76318 130.044 6.86702 130.322 7.07471 130.512C7.28239 130.698 7.58496 130.791 7.98242 130.791ZM5.95215 120.346C5.95215 120.092 5.97005 119.883 6.00586 119.718L7.18213 119.842C7.13916 120.021 7.11767 120.207 7.11767 120.4C7.11767 120.905 7.28239 121.315 7.61181 121.63C7.94124 121.942 8.36914 122.097 8.89551 122.097L12 122.097L12 123.36L6.05957 123.36L6.05957 122.371L7.10693 122.205L7.10693 122.14C6.75244 121.943 6.47135 121.687 6.26367 121.372C6.05599 121.054 5.95215 120.712 5.95215 120.346ZM12 112.695L11.1728 112.947L11.1728 112.99C11.5345 113.277 11.7816 113.565 11.9141 113.855C12.043 114.145 12.1074 114.517 12.1074 114.972C12.1074 115.556 11.9499 116.012 11.6348 116.342C11.3197 116.668 10.8739 116.83 10.2974 116.83C9.68506 116.83 9.22314 116.603 8.91162 116.148C8.6001 115.694 8.43001 115.001 8.40136 114.07L8.36914 113.044L8.05224 113.044C7.67269 113.044 7.38981 113.133 7.20361 113.312C7.01383 113.488 6.91894 113.762 6.91894 114.134C6.91894 114.439 6.9637 114.73 7.05322 115.01C7.14274 115.289 7.24837 115.558 7.37011 115.815L6.46777 116.224C6.29948 115.901 6.17236 115.549 6.08642 115.165C5.99691 114.782 5.95215 114.421 5.95215 114.08C5.95215 113.325 6.11686 112.756 6.44629 112.372C6.77571 111.986 7.29313 111.792 7.99853 111.792L12 111.792L12 112.695ZM11.1406 114.575C11.1406 114.116 11.0135 113.749 10.7593 113.474C10.5015 113.194 10.1416 113.055 9.67969 113.055L9.16406 113.055L9.19629 113.817C9.21777 114.412 9.31803 114.845 9.49707 115.117C9.67252 115.386 9.94287 115.52 10.3081 115.52C10.5731 115.52 10.779 115.441 10.9258 115.284C11.069 115.126 11.1406 114.89 11.1406 114.575ZM12 102.825L12 104.092L8.33691 104.092C7.88216 104.092 7.54378 104.178 7.32177 104.35C7.09619 104.522 6.9834 104.791 6.9834 105.156C6.9834 105.643 7.14274 106.001 7.46142 106.23C7.77653 106.456 8.30289 106.568 9.04052 106.568L12 106.568L12 107.831L6.05957 107.831L6.05957 106.842L6.83838 106.665L6.83838 106.601C6.5555 106.436 6.33707 106.198 6.1831 105.886C6.02913 105.571 5.95215 105.226 5.95215 104.85C5.95215 103.937 6.26367 103.331 6.88672 103.034L6.88672 102.948C6.5931 102.773 6.36393 102.526 6.19922 102.207C6.0345 101.888 5.95215 101.523 5.95215 101.111C5.95215 100.402 6.13118 99.8868 6.48925 99.5646C6.84733 99.2387 7.39339 99.0758 8.12744 99.0758L12 99.0758L12 100.338L8.33691 100.338C7.88216 100.338 7.54378 100.426 7.32177 100.601C7.09619 100.773 6.9834 101.042 6.9834 101.407C6.9834 101.897 7.13737 102.257 7.44531 102.486C7.74967 102.712 8.21875 102.825 8.85254 102.825L12 102.825Z" fill="#FF6C00"/>
<path d="M7.72998 54.7451L4.14746 52.8867L4.14746 51.4902L8.95459 54.106L12 54.106L12 55.395L8.99756 55.395L4.14746 58L4.14746 56.6035L7.72998 54.7451ZM9.01904 43.1188C9.98942 43.1188 10.7467 43.3677 11.291 43.8654C11.8353 44.3632 12.1074 45.056 12.1074 45.944C12.1074 46.4991 11.9821 46.9896 11.7314 47.4157C11.4808 47.8418 11.1209 48.1695 10.6519 48.3986C10.1828 48.6278 9.63851 48.7424 9.01904 48.7424C8.05583 48.7424 7.30387 48.4953 6.76318 48.0012C6.22249 47.507 5.95215 46.8106 5.95215 45.9118C5.95215 45.0524 6.22965 44.3721 6.78467 43.8708C7.3361 43.3695 8.08089 43.1188 9.01904 43.1188ZM9.01904 47.4426C10.3905 47.4426 11.0762 46.9359 11.0762 45.9226C11.0762 44.92 10.3905 44.4187 9.01904 44.4187C7.66195 44.4187 6.9834 44.9235 6.9834 45.9333C6.9834 46.4632 7.15885 46.8482 7.50977 47.0881C7.86068 47.3244 8.36377 47.4426 9.01904 47.4426ZM12 35.2738L11.2212 35.4511L11.2212 35.5155C11.4969 35.691 11.7135 35.9416 11.8711 36.2675C12.0286 36.5897 12.1074 36.9586 12.1074 37.3739C12.1074 38.0937 11.9284 38.6308 11.5703 38.9853C11.2122 39.3397 10.6698 39.517 9.94287 39.517L6.05957 39.517L6.05957 38.244L9.72266 38.244C10.1774 38.244 10.5194 38.1509 10.7485 37.9647C10.9741 37.7785 11.0869 37.4867 11.0869 37.0893C11.0869 36.5593 10.9294 36.1708 10.6143 35.9237C10.2956 35.6731 9.76383 35.5478 9.01904 35.5478L6.05957 35.5478L6.05957 34.2802L12 34.2802L12 35.2738ZM11.0869 28.068C11.0869 27.76 11.0386 27.4521 10.9419 27.1441L11.8926 27.1441C11.9534 27.2838 12.0036 27.4646 12.043 27.6866C12.0859 27.905 12.1074 28.1324 12.1074 28.3687C12.1074 29.5647 11.4772 30.1627 10.2168 30.1627L7.01562 30.1627L7.01562 30.9737L6.45703 30.9737L5.99512 30.1036L4.73828 29.6739L4.73828 28.8951L6.05957 28.8951L6.05957 27.2032L7.01562 27.2032L7.01562 28.8951L10.1953 28.8951C10.4997 28.8951 10.7253 28.8199 10.8721 28.6695C11.0153 28.5156 11.0869 28.315 11.0869 28.068ZM12 19.5623L11.2212 19.7396L11.2212 19.804C11.4969 19.9795 11.7135 20.2301 11.8711 20.556C12.0286 20.8782 12.1074 21.247 12.1074 21.6624C12.1074 22.3821 11.9284 22.9192 11.5703 23.2737C11.2122 23.6282 10.6698 23.8055 9.94287 23.8055L6.05957 23.8055L6.05957 22.5325L9.72265 22.5325C10.1774 22.5325 10.5194 22.4394 10.7485 22.2532C10.9741 22.067 11.0869 21.7752 11.0869 21.3777C11.0869 20.8478 10.9294 20.4593 10.6143 20.2122C10.2956 19.9616 9.76383 19.8362 9.01904 19.8362L6.05957 19.8362L6.05957 18.5687L12 18.5687L12 19.5623ZM5.95215 11.5347C5.95215 10.7935 6.2207 10.217 6.75781 9.80518C7.29492 9.38981 8.04866 9.18213 9.01904 9.18213C9.993 9.18213 10.7521 9.3916 11.2964 9.81055C11.8371 10.2295 12.1074 10.8114 12.1074 11.5562C12.1074 12.3081 11.8371 12.8918 11.2964 13.3071L11.2964 13.3931L12 13.624L12 14.5693L3.64258 14.5693L3.64258 13.3071L5.62988 13.3071C5.77669 13.3071 5.99512 13.3143 6.28515 13.3286C6.57519 13.3429 6.7596 13.3537 6.83838 13.3608L6.83838 13.3071C6.24756 12.9061 5.95215 12.3153 5.95215 11.5347ZM6.9834 11.8623C6.9834 12.3708 7.13379 12.7378 7.43457 12.9634C7.73177 13.1854 8.23128 13.3 8.9331 13.3071L9.01904 13.3071C9.74235 13.3071 10.2669 13.1925 10.5928 12.9634C10.915 12.7342 11.0762 12.36 11.0762 11.8408C11.0762 11.3932 10.8989 11.0548 10.5444 10.8257C10.1899 10.5929 9.6779 10.4766 9.0083 10.4766C7.65836 10.4766 6.9834 10.9385 6.9834 11.8623ZM12.1074 2.92158C12.1074 3.84541 11.8389 4.56872 11.3018 5.0915C10.7611 5.61071 10.0181 5.87031 9.07275 5.87031C8.10237 5.87031 7.33968 5.62861 6.78467 5.14521C6.22965 4.66182 5.95215 3.99759 5.95215 3.15254C5.95215 2.36836 6.19026 1.74889 6.6665 1.29414C7.14274 0.839387 7.79801 0.612011 8.63232 0.612011L9.31445 0.612011L9.31445 4.57051C9.89095 4.5526 10.335 4.39684 10.6465 4.10322C10.9544 3.8096 11.1084 3.39603 11.1084 2.8625C11.1084 2.51159 11.0762 2.18574 11.0117 1.88496C10.9437 1.5806 10.8327 1.25475 10.6787 0.907421L11.7046 0.907421C11.8514 1.21536 11.9552 1.52689 12.0161 1.84199C12.077 2.1571 12.1074 2.51696 12.1074 2.92158ZM6.9082 3.15254C6.9082 3.55358 7.03532 3.87585 7.28955 4.11933C7.54378 4.35924 7.91439 4.50247 8.40136 4.54902L8.40136 1.85273C7.9108 1.85989 7.5402 1.97806 7.28955 2.20723C7.03532 2.43639 6.9082 2.7515 6.9082 3.15254Z" fill="#303030"/>
</svg>
